<svg xmlns="http://www.w3.org/2000/svg" width="900" height="420" viewBox="0 0 900 420">
<rect x="0" y="0" width="100%" height="100%" fill="#ffffff"/>
<text x="80" y="22" font-family="Arial" font-size="16" font-weight="700">Cost and Metric Delta Summary</text>
<line x1="80" y1="40" x2="80" y2="340" stroke="#6b7280" stroke-width="1"/>
<line x1="80" y1="340" x2="860" y2="340" stroke="#6b7280" stroke-width="1"/>
<rect x="111.20" y="340.00" width="93.60" height="0.00" fill="#2563eb" opacity="0.85"/>
<text x="158.00" y="334.00" text-anchor="middle" font-size="11" fill="#111827">0.000</text>
<text x="158.00" y="358.00" text-anchor="middle" font-size="12" fill="#374151">FG</text>
<rect x="267.20" y="340.00" width="93.60" height="0.00" fill="#db2777" opacity="0.85"/>
<text x="314.00" y="334.00" text-anchor="middle" font-size="11" fill="#111827">0.000</text>
<text x="314.00" y="358.00" text-anchor="middle" font-size="12" fill="#374151">BR</text>
<rect x="423.20" y="340.00" width="93.60" height="0.00" fill="#f97316" opacity="0.85"/>
<text x="470.00" y="334.00" text-anchor="middle" font-size="11" fill="#111827">0.000</text>
<text x="470.00" y="358.00" text-anchor="middle" font-size="12" fill="#374151">Tokens</text>
<rect x="579.20" y="340.00" width="93.60" height="0.00" fill="#16a34a" opacity="0.85"/>
<text x="626.00" y="334.00" text-anchor="middle" font-size="11" fill="#111827">0.000</text>
<text x="626.00" y="358.00" text-anchor="middle" font-size="12" fill="#374151">Tool calls</text>
<rect x="735.20" y="40.00" width="93.60" height="300.00" fill="#9333ea" opacity="0.85"/>
<text x="782.00" y="34.00" text-anchor="middle" font-size="11" fill="#111827">184.155</text>
<text x="782.00" y="358.00" text-anchor="middle" font-size="12" fill="#374151">Wall clock (s)</text>
<text x="14" y="392" font-family="Arial, Helvetica, sans-serif" font-size="11" fill="#6b7280" font-weight="normal">0.0</text>
<text x="870" y="342" font-family="Arial, Helvetica, sans-serif" font-size="11" fill="#6b7280" font-weight="normal">184.16</text>
<text x="450.0" y="404" text-anchor="middle" font-size="12" fill="#374151">Metric / Cost Magnitude</text>
</svg>