<svg xmlns="http://www.w3.org/2000/svg" width="900" height="420" viewBox="0 0 900 420">
<rect x="0" y="0" width="100%" height="100%" fill="#ffffff"/>
<text x="80" y="22" font-family="Arial" font-size="16" font-weight="700">T0/T1/T2 Stability Snapshot</text>
<line x1="80" y1="40" x2="80" y2="340" stroke="#6b7280" stroke-width="1"/>
<line x1="80" y1="340" x2="860" y2="340" stroke="#6b7280" stroke-width="1"/>
<rect x="106.00" y="160.00" width="78.00" height="180.00" fill="#2563eb" opacity="0.85"/>
<text x="145.00" y="154.00" text-anchor="middle" font-size="11" fill="#111827">0.600</text>
<text x="145.00" y="358.00" text-anchor="middle" font-size="12" fill="#374151">T0 Replay</text>
<rect x="236.00" y="182.50" width="78.00" height="157.50" fill="#16a34a" opacity="0.85"/>
<text x="275.00" y="176.50" text-anchor="middle" font-size="11" fill="#111827">0.525</text>
<text x="275.00" y="358.00" text-anchor="middle" font-size="12" fill="#374151">T1 Replay</text>
<rect x="366.00" y="265.00" width="78.00" height="75.00" fill="#9333ea" opacity="0.85"/>
<text x="405.00" y="259.00" text-anchor="middle" font-size="11" fill="#111827">0.250</text>
<text x="405.00" y="358.00" text-anchor="middle" font-size="12" fill="#374151">T0 Heldout</text>
<rect x="496.00" y="212.50" width="78.00" height="127.50" fill="#ea580c" opacity="0.85"/>
<text x="535.00" y="206.50" text-anchor="middle" font-size="11" fill="#111827">0.425</text>
<text x="535.00" y="358.00" text-anchor="middle" font-size="12" fill="#374151">T1 Heldout</text>
<rect x="626.00" y="218.50" width="78.00" height="121.50" fill="#7c3aed" opacity="0.85"/>
<text x="665.00" y="212.50" text-anchor="middle" font-size="11" fill="#111827">0.405</text>
<text x="665.00" y="358.00" text-anchor="middle" font-size="12" fill="#374151">T2 Heldout</text>
<rect x="756.00" y="346.00" width="78.00" height="-6.00" fill="#0ea5e9" opacity="0.85"/>
<text x="795.00" y="340.00" text-anchor="middle" font-size="11" fill="#111827">-0.020</text>
<text x="795.00" y="358.00" text-anchor="middle" font-size="12" fill="#374151">PDS</text>
<text x="14" y="392" font-family="Arial, Helvetica, sans-serif" font-size="11" fill="#6b7280" font-weight="normal">0.0</text>
<text x="870" y="342" font-family="Arial, Helvetica, sans-serif" font-size="11" fill="#6b7280" font-weight="normal">1.00</text>
<text x="450.0" y="404" text-anchor="middle" font-size="12" fill="#374151">Score / PDS</text>
</svg>